<?xml version="1.0" encoding="UTF-8"?>
<svg version="1.1" xmlns="http://www.w3.org/2000/svg" width="1024" height="1024">
<path d="M0 0 C3.75790908 0.00458353 7.51580065 -0.00248779 11.27370608 -0.00795984 C18.60647568 -0.01679108 25.93920404 -0.01496075 33.27197517 -0.00913456 C39.2330143 -0.00459626 45.19404197 -0.00401447 51.15508235 -0.00618219 C52.43326997 -0.00664189 52.43326997 -0.00664189 53.73727958 -0.00711088 C55.46886612 -0.00775039 57.20045266 -0.00839882 58.93203919 -0.00905606 C75.11484528 -0.01474015 91.2976286 -0.00823013 107.48043095 0.00254467 C121.34957316 0.01149298 135.2186819 0.00991389 149.08782351 0.00070715 C165.2312973 -0.01000448 181.37475126 -0.01420624 197.51822811 -0.00806832 C199.24027848 -0.00743127 200.96232885 -0.00680253 202.68437922 -0.00618219 C203.9550265 -0.00571937 203.9550265 -0.00571937 205.25134342 -0.00524719 C211.20605351 -0.00352401 217.16075095 -0.00642689 223.11545908 -0.0111413 C230.37024289 -0.01675942 237.62498343 -0.0152135 244.8797623 -0.00457981 C248.57726894 0.00066212 252.27470353 0.00275873 255.97220957 -0.00387812 C259.98554634 -0.0109729 263.99870244 -0.00247972 268.0120331 0.00748205 C269.17224744 0.00302061 270.33246177 -0.00144083 271.52783412 -0.00603747 C283.8609834 0.05327075 293.06653449 2.50513833 303.56755984 8.94894934 C309.84494587 15.40070721 313.68319916 23.5180498 314.19255984 32.51144934 C313.95023657 41.40168422 310.02433629 49.95790799 303.81755984 56.26144934 C294.16757648 64.41114738 283.85490449 65.71024353 271.56751406 65.63998938 C270.26281655 65.64451951 268.95811903 65.64904963 267.61388522 65.65371704 C264.01685499 65.66585987 260.42006227 65.65959544 256.82303262 65.65021205 C252.93397919 65.6433872 249.0449681 65.65396299 245.15592349 65.66249609 C238.42261151 65.67503881 231.68936375 65.67704349 224.95604289 65.67213964 C215.20458311 65.66531629 205.45321966 65.67787665 195.70177712 65.69564682 C179.85731895 65.72427388 164.0128712 65.74180277 148.16838992 65.75021887 C146.74727933 65.75097964 146.74727933 65.75097964 145.29745945 65.75175577 C138.57499304 65.7552819 131.85252648 65.75841108 125.13005984 65.76144934 C117.45956815 65.76491725 109.7890766 65.76856695 102.11858523 65.77267981 C101.17385493 65.77318242 100.22912462 65.77368504 99.25576613 65.77420288 C83.47473402 65.78296233 67.69373763 65.80343031 51.91272956 65.8321619 C42.1925339 65.849294 32.47243961 65.85594825 22.75223085 65.84885585 C16.0849995 65.84466065 9.41783186 65.85107726 2.75061534 65.86565459 C-1.08924585 65.87367212 -4.9289488 65.87689257 -8.76880872 65.86683226 C-12.94516035 65.85598241 -17.12113535 65.86849452 -21.29747617 65.8829093 C-22.49206581 65.87601536 -23.68665544 65.86912143 -24.91744477 65.86201859 C-50.39966316 66.03228525 -74.09105232 76.04205747 -92.06915891 94.11691809 C-98.0041195 100.27526987 -103.06430493 106.74179174 -107.18244016 114.26144934 C-107.50841184 114.85490149 -107.83438352 115.44835363 -108.17023313 116.05978918 C-117.43184553 133.2735986 -121.34157845 151.93899979 -121.32288206 171.39641333 C-121.32585318 172.3782115 -121.3288243 173.36000968 -121.33188546 174.37155932 C-121.34051425 177.64126128 -121.34207577 180.91092637 -121.34357297 184.18063879 C-121.34820541 186.53372287 -121.35323064 188.8868062 -121.35861814 191.23988867 C-121.37170636 197.62066011 -121.37818054 204.00142105 -121.3826288 210.38220382 C-121.38556635 214.37634368 -121.38964087 218.3704814 -121.39413297 222.36461973 C-121.40632057 233.45075627 -121.41661954 244.53689091 -121.42000806 255.623034 C-121.42022763 256.33134859 -121.4204472 257.03966318 -121.42067342 257.76944185 C-121.42089169 258.47933718 -121.42110997 259.18923251 -121.42133486 259.92063981 C-121.42177831 261.35886864 -121.42222487 262.79709747 -121.42267454 264.23532629 C-121.42289597 264.94871934 -121.4231174 265.6621124 -121.42334554 266.39712342 C-121.42728562 277.9322855 -121.44471776 289.46738412 -121.46803406 301.00252173 C-121.49184907 312.88159608 -121.50421457 324.76063873 -121.50537598 336.63973731 C-121.50628729 343.29469526 -121.51222683 349.9495817 -121.53019559 356.60452223 C-121.54679624 362.87465757 -121.5487741 369.14463719 -121.54005659 375.41478682 C-121.53929249 377.70106695 -121.54354478 379.98735588 -121.55351484 382.27361441 C-121.69115037 415.83579151 -115.45117127 444.12290948 -92.18244016 469.26144934 C-91.48119016 470.03230871 -90.77994016 470.80316809 -90.05744016 471.59738684 C-75.20383137 487.22961222 -52.44611341 497.19130608 -31.03032613 498.44614458 C-27.63697389 498.5215805 -24.24896416 498.53592763 -20.85478818 498.52646399 C-19.56597732 498.53084526 -18.27716645 498.53522653 -16.94930071 498.53974056 C-13.40612787 498.55155729 -9.86304823 498.55123576 -6.31986046 498.54880548 C-2.48545403 498.54838329 1.34892139 498.55950955 5.18331301 498.56926489 C11.8178164 498.58467078 18.45229864 498.59311878 25.08681834 498.59697485 C34.6910239 498.60274152 44.29517283 498.62135865 53.89935326 498.64341539 C69.49992782 498.67908093 85.10050559 498.70741753 100.70110476 498.72971106 C101.63347698 498.73104605 102.5658492 498.73238104 103.52647512 498.73375648 C111.09138709 498.74453293 118.65629954 498.75495314 126.22121203 498.76535654 C132.8356036 498.77446749 139.44999494 498.78372007 146.06438601 498.79318762 C146.9959175 498.79451836 147.92744899 498.7958491 148.88720871 498.79722017 C164.43323872 498.81966929 179.97924447 498.84987081 195.52524954 498.88558006 C205.10276609 498.90720456 214.68024487 498.92185435 224.25778448 498.92741883 C230.82077074 498.93167421 237.383721 498.94293353 243.94668729 498.95964277 C247.72932447 498.96902165 251.51189437 498.97517173 255.29454386 498.97257948 C259.40206272 498.96982498 263.50939555 498.98245447 267.6168915 498.99643469 C268.80231352 498.99313571 269.98773554 498.98983674 271.20907944 498.9864378 C284.07603974 499.05856428 295.39695804 500.6368484 305.21599734 509.49191809 C311.26978861 516.18061917 314.35417392 524.6704732 314.12615359 533.61691809 C313.14750855 542.00353446 308.73262594 549.36891682 302.81755984 555.26144934 C293.0394506 562.71067774 283.71021335 563.55927077 271.77919924 563.52214575 C270.47298243 563.5259713 269.16676562 563.52979684 267.82096648 563.53373832 C264.21017757 563.54399622 260.5994882 563.54184205 256.98869121 563.53755772 C253.08788661 563.53508618 249.18710571 563.54411046 245.28630984 563.55159521 C237.64654827 563.56433664 230.00682187 563.56613624 222.36705147 563.56379495 C216.1488914 563.56200943 209.93074198 563.56376647 203.71258318 563.56801939 C202.38323744 563.56891217 202.38323744 563.56891217 201.02703623 563.56982299 C199.22630059 563.57103482 197.42556495 563.57224895 195.62482931 563.57346537 C178.73733979 563.58434074 161.84987023 563.58217962 144.96237959 563.57608052 C129.5550597 563.57092284 114.14780325 563.58213638 98.74049591 563.60117874 C82.89057649 563.62061644 67.040687 563.62880206 51.19075561 563.62505549 C42.30454458 563.62315094 33.41838739 563.62555681 24.53218615 563.63977003 C16.95869952 563.65176134 9.38529978 563.65300357 1.81181179 563.64097986 C-2.04308296 563.63514226 -5.89781942 563.63384673 -9.75270307 563.64598227 C-31.12375948 563.70860431 -52.38154219 563.47442322 -72.74494016 556.26144934 C-74.4334509 555.67822912 -74.4334509 555.67822912 -76.15607297 555.08322668 C-93.06103837 549.03139253 -108.24930798 540.5538395 -122.18244016 529.26144934 C-122.77605344 528.78594641 -123.36966672 528.31044348 -123.98126829 527.82053137 C-151.89835614 505.28659287 -171.68450222 474.92019169 -181.18244016 440.26144934 C-181.51630735 439.04844152 -181.85017454 437.83543371 -182.19415891 436.58566809 C-186.58470778 418.35953595 -186.47738997 399.31644799 -186.44122922 380.68869543 C-186.44394694 378.30266225 -186.44751221 375.91662991 -186.45184934 373.53059912 C-186.46088183 367.11546095 -186.4574675 360.7003879 -186.45109117 354.28524876 C-186.4475077 350.26491922 -186.44821649 346.24459779 -186.45007169 342.22426748 C-186.45037816 341.552635 -186.45068462 340.88100252 -186.45100038 340.18901754 C-186.45163995 338.82377365 -186.45228838 337.45852976 -186.45294556 336.09328587 C-186.45862018 323.3543171 -186.45213588 310.61537732 -186.44134483 297.8764133 C-186.43240783 286.98977021 -186.43396818 276.10316979 -186.44318235 265.21652746 C-186.45392894 252.51372043 -186.45807541 239.81093866 -186.45195782 227.10812771 C-186.45132085 225.74908503 -186.45069211 224.39004235 -186.45007169 223.03099966 C-186.44976314 222.36266092 -186.44945459 221.69432217 -186.44913669 221.00573074 C-186.44742316 216.33762983 -186.45039555 211.66955006 -186.4550308 207.00145102 C-186.46085312 200.69916723 -186.4567189 194.39696321 -186.44524229 188.09468794 C-186.44262186 185.7966953 -186.44331533 183.49869582 -186.44776762 181.20070601 C-186.47736901 164.35572677 -186.20554398 147.38047693 -182.05744016 130.94894934 C-181.84571165 130.09268957 -181.63398313 129.23642981 -181.4158386 128.35422277 C-174.53599632 101.69604346 -162.55137876 76.75367611 -143.47931516 56.67941809 C-140.71037911 53.76450071 -138.13110286 50.71188848 -135.55744016 47.62473059 C-134.18244016 46.26144934 -134.18244016 46.26144934 -132.18244016 46.26144934 C-132.18244016 45.60144934 -132.18244016 44.94144934 -132.18244016 44.26144934 C-128.73926129 41.00096975 -124.92848416 38.16402061 -121.18244016 35.26144934 C-120.17954954 34.47125402 -119.17665891 33.68105871 -118.14337766 32.86691809 C-100.8206311 19.61916194 -81.01252664 11.26196891 -60.18244016 5.26144934 C-58.33585813 4.72584387 -58.33585813 4.72584387 -56.45197141 4.17941809 C-38.06229576 -0.55201937 -18.83251804 -0.03407874 0 0 Z " fill="#0D86FE" transform="translate(411.182440161705,227.73855066299438)"/>
<path d="M0 0 C1.65 0 3.3 0 5 0 C5 0.33 5 0.66 5 1 C3.35 1 1.7 1 0 1 C0 0.67 0 0.34 0 0 Z " fill="#1F87FA" transform="translate(656,294)"/>
<path d="M0 0 C1.65 0 3.3 0 5 0 C5 0.33 5 0.66 5 1 C3.35 1 1.7 1 0 1 C0 0.67 0 0.34 0 0 Z " fill="#1F89FB" transform="translate(416,294)"/>
<path d="M0 0 C2 1 2 1 2 1 Z " fill="#1F8BFE" transform="translate(373,295)"/>
<path d="M0 0 C2 1 2 1 2 1 Z " fill="#2186F7" transform="translate(683,294)"/>
<path d="M0 0 C2 1 2 1 2 1 Z " fill="#2187F9" transform="translate(675,294)"/>
<path d="M0 0 C2 1 2 1 2 1 Z " fill="#2187F8" transform="translate(664,294)"/>
<path d="M0 0 C2 1 2 1 2 1 Z " fill="#2186F9" transform="translate(627,294)"/>
<path d="M0 0 C2 1 2 1 2 1 Z " fill="#1F87FC" transform="translate(624,294)"/>
<path d="M0 0 C2 1 2 1 2 1 Z " fill="#1F87FB" transform="translate(594,294)"/>
<path d="M0 0 C2 1 2 1 2 1 Z " fill="#1F88FA" transform="translate(579,294)"/>
<path d="M0 0 C2 1 2 1 2 1 Z " fill="#1F87F9" transform="translate(538,294)"/>
<path d="M0 0 C2 1 2 1 2 1 Z " fill="#1F88FB" transform="translate(528,294)"/>
<path d="M0 0 C2 1 2 1 2 1 Z " fill="#1E86FB" transform="translate(491,294)"/>
<path d="M0 0 C2 1 2 1 2 1 Z " fill="#1E85FA" transform="translate(466,294)"/>
<path d="M0 0 C2 1 2 1 2 1 Z " fill="#1E86FB" transform="translate(459,294)"/>
<path d="M0 0 C2 1 2 1 2 1 Z " fill="#1F88FB" transform="translate(451,294)"/>
<path d="M0 0 C2 1 2 1 2 1 Z " fill="#2089FB" transform="translate(435,294)"/>
<path d="M0 0 C2 1 2 1 2 1 Z " fill="#1F89FD" transform="translate(403,294)"/>
<path d="M0 0 C2 1 2 1 2 1 Z " fill="#1F8AFD" transform="translate(400,294)"/>
<path d="" fill="#47494A" transform="translate(0,0)"/>
<path d="" fill="#3E4855" transform="translate(0,0)"/>
<path d="" fill="#2284EE" transform="translate(0,0)"/>
<path d="" fill="#2088F8" transform="translate(0,0)"/>
<path d="" fill="#2681EB" transform="translate(0,0)"/>
<path d="" fill="#2083F6" transform="translate(0,0)"/>
<path d="" fill="#2386F5" transform="translate(0,0)"/>
<path d="" fill="#1988FD" transform="translate(0,0)"/>
<path d="" fill="#228AFA" transform="translate(0,0)"/>
<path d="" fill="#2185F9" transform="translate(0,0)"/>
<path d="" fill="#218CF8" transform="translate(0,0)"/>
<path d="" fill="#238AFA" transform="translate(0,0)"/>
<path d="" fill="#1F8BF9" transform="translate(0,0)"/>
<path d="" fill="#2189FC" transform="translate(0,0)"/>
<path d="" fill="#1D8AFE" transform="translate(0,0)"/>
<path d="" fill="#2188F7" transform="translate(0,0)"/>
<path d="" fill="#2189FA" transform="translate(0,0)"/>
<path d="" fill="#1F87F8" transform="translate(0,0)"/>
<path d="" fill="#1F88FA" transform="translate(0,0)"/>
<path d="" fill="#1F8AFC" transform="translate(0,0)"/>
<path d="" fill="#2087FB" transform="translate(0,0)"/>
<path d="" fill="#1F89FB" transform="translate(0,0)"/>
<path d="" fill="#208AFC" transform="translate(0,0)"/>
<path d="" fill="#2088FD" transform="translate(0,0)"/>
<path d="" fill="#1F88FB" transform="translate(0,0)"/>
<path d="" fill="#1E89FC" transform="translate(0,0)"/>
<path d="" fill="#2087FA" transform="translate(0,0)"/>
<path d="" fill="#1F88FC" transform="translate(0,0)"/>
<path d="" fill="#1F89FB" transform="translate(0,0)"/>
<path d="" fill="#208AFD" transform="translate(0,0)"/>
<path d="" fill="#1E87FA" transform="translate(0,0)"/>
<path d="" fill="#1F87FC" transform="translate(0,0)"/>
<path d="" fill="#1F88FA" transform="translate(0,0)"/>
<path d="" fill="#1F87FB" transform="translate(0,0)"/>
<path d="" fill="#1F88FA" transform="translate(0,0)"/>
<path d="" fill="#2089FC" transform="translate(0,0)"/>
<path d="" fill="#1F88F9" transform="translate(0,0)"/>
<path d="" fill="#2089FC" transform="translate(0,0)"/>
<path d="" fill="#1F8AFC" transform="translate(0,0)"/>
<path d="" fill="#1E88FD" transform="translate(0,0)"/>
<path d="" fill="#248CFA" transform="translate(0,0)"/>
<path d="" fill="#2389F8" transform="translate(0,0)"/>
</svg>
